<?xml version="1.0" encoding="UTF-8"?>
<svg version="1.1" xmlns="http://www.w3.org/2000/svg" width="40" height="40">
<path d="M0 0 C13.2 0 26.4 0 40 0 C40 13.2 40 26.4 40 40 C26.8 40 13.6 40 0 40 C0 26.8 0 13.6 0 0 Z " fill="#0B4F0F" transform="translate(0,0)"/>
<path d="M0 0 C1 3 1 3 -0.00390625 5.48828125 C-5.87804878 16.13240418 -5.87804878 16.13240418 -11 20 C-14.875 20.375 -14.875 20.375 -18 20 C-18.33 18.35 -18.66 16.7 -19 15 C-18.49549316 14.61666504 -17.99098633 14.23333008 -17.47119141 13.83837891 C-15.18794059 12.1021405 -12.90645336 10.36359951 -10.625 8.625 C-9.8309375 8.02171875 -9.036875 7.4184375 -8.21875 6.796875 C-7.45820313 6.21679688 -6.69765625 5.63671875 -5.9140625 5.0390625 C-5.2123291 4.50490723 -4.5105957 3.97075195 -3.78759766 3.42041016 C-1.90000268 1.97581413 -1.90000268 1.97581413 0 0 Z " fill="#F7F9F7" transform="translate(30,10)"/>
<path d="M0 0 C0.33 0.66 0.66 1.32 1 2 C-0.7524974 3.7524974 -2.45611272 5.15028764 -4.4375 6.625 C-5.14003906 7.1509375 -5.84257812 7.676875 -6.56640625 8.21875 C-8.33037749 9.50987502 -10.11138909 10.77782278 -11.90234375 12.03125 C-13.37380859 13.06765625 -13.37380859 13.06765625 -14.875 14.125 C-15.80054688 14.76695313 -16.72609375 15.40890625 -17.6796875 16.0703125 C-19.95795138 17.96503027 -20.94462553 19.27058327 -22 22 C-23.44680851 14.76595745 -23.44680851 14.76595745 -21.6875 11.75 C-18.41517676 9.61918487 -15.0512044 8.36876787 -11.40234375 7.0078125 C-8.48348189 5.78331435 -6.3634963 4.08543791 -4 2 C-2.68861096 1.29114106 -1.36222983 0.60543548 0 0 Z " fill="#858F7A" transform="translate(32,7)"/>
<path d="M0 0 C0.33 0.66 0.66 1.32 1 2 C-0.89338446 3.89338446 -2.81889269 5.49166029 -4.9375 7.125 C-5.62714844 7.66382813 -6.31679688 8.20265625 -7.02734375 8.7578125 C-9 10 -9 10 -12 10 C-8.74897716 5.25892502 -4.89367634 2.79129597 0 0 Z " fill="#718F6E" transform="translate(32,7)"/>
</svg>
